<svg width="29" height="25" viewBox="0 0 29 25" fill="none" xmlns="http://www.w3.org/2000/svg">
<path d="M23.1009 5.25858C23.4942 6.23024 23.384 7.23775 23.395 8.38471C23.4061 9.53167 23.1499 10.7241 22.6412 11.894C22.1326 13.0639 21.3813 14.1883 20.4303 15.203C19.4793 16.2177 18.3472 17.1028 17.0986 17.8079C15.8501 18.5129 14.5096 19.0241 13.1536 19.3121C11.7977 19.6002 10.4528 19.6595 9.19582 19.4867C7.93884 19.3139 6.79436 18.9123 5.82773 18.305C4.8611 17.6976 4.19371 17.3205 3.50093 16.9236L4.02672 15.9955C4.52921 16.8971 5.27415 17.3394 6.19214 17.9162C7.11013 18.4929 8.19702 18.8743 9.39075 19.0384C10.5845 19.2025 11.8617 19.1462 13.1494 18.8726C14.4371 18.5991 15.7102 18.1137 16.8959 17.4441C18.0816 16.7745 19.1567 15.9339 20.0599 14.9703C20.963 14.0066 21.6765 12.9388 22.1596 11.8278C22.6427 10.7168 22.8859 9.58433 22.8754 8.49508C22.8649 7.40584 22.6009 6.38114 22.0984 5.47949L23.1009 5.25858Z" fill="#1E1B1B"/>
<ellipse cx="0.975143" cy="3.01253" rx="0.975143" ry="3.01253" transform="matrix(0.724604 -0.690936 0.684481 0.727362 4.33594 7.92578)" fill="#1E1B1B"/>
<ellipse cx="0.97459" cy="3.01422" rx="0.97459" ry="3.01422" transform="matrix(0.798649 -0.603531 0.597217 0.800786 11.1953 3.77759)" fill="#1E1B1B"/>
<path d="M23.2333 5.21747C23.6508 6.23482 23.556 7.28056 23.5872 8.47346C23.6185 9.66636 23.3783 10.9019 22.8806 12.1094C22.3828 13.317 21.6372 14.473 20.6863 15.5114C19.7354 16.5498 18.5977 17.4503 17.3384 18.1614C16.0791 18.8726 14.7227 19.3805 13.3466 19.6561C11.9706 19.9317 10.6019 19.9697 9.31867 19.7679C8.03545 19.566 6.86282 19.1283 5.86776 18.4797C4.87269 17.8311 4.1864 17.4271 3.47391 17.0022L3.99327 16.0463C4.52074 16.9928 5.28714 17.4658 6.23214 18.0818C7.17713 18.6977 8.29075 19.1134 9.5094 19.3051C10.7281 19.4968 12.0279 19.4608 13.3347 19.199C14.6415 18.9373 15.9296 18.4549 17.1256 17.7796C18.3215 17.1042 19.4019 16.249 20.305 15.2629C21.2081 14.2767 21.9162 13.1789 22.3889 12.0321C22.8616 10.8853 23.0896 9.71195 23.06 8.57907C23.0303 7.4462 22.7436 6.37598 22.2161 5.42952L23.2333 5.21747Z" fill="#1E1B1B"/>
</svg>
