<svg width="332" height="79" viewBox="0 0 332 79" fill="none" xmlns="http://www.w3.org/2000/svg">
<path fill-rule="evenodd" clip-rule="evenodd" d="M309.091 0.707673C297.491 3.14548 269.216 19.7099 240.337 41.0248C230.429 48.3383 234.537 55.7145 250.306 44.5882L270.545 30.336C312.776 0.644846 333.137 -2.91792 323.651 21.2723C311.689 51.901 276.345 68.4032 216.654 71.4035C182.579 73.0909 153.881 68.1531 107.36 52.2134C99.5665 49.5255 99.6269 49.9635 106.212 45.5259C117.45 37.9623 131.104 25.3359 136.662 17.4594C148.081 1.27015 150.679 -6.85527 134.185 10.5217C121.921 23.3983 110.381 32.8366 96.4248 41.5251L89.9603 45.5881L83.7978 43.0252C34.9207 23.1482 0 23.4605 0 43.8378C0 66.9031 51.1728 74.5911 86.9394 56.9017L94.4915 53.2139C96.7873 53.9643 112.919 60.7768 149.833 70.6531C212.787 87.4677 286.797 76.7794 316.281 46.6508C339.662 22.8352 335.251 -4.79265 309.091 0.707673ZM39.6937 36.0248C50.9916 37.5871 83.4353 47.0254 83.4353 48.7757C83.4353 49.3382 70.929 54.8391 66.277 56.2764C43.0166 63.5276 7.91463 58.652 7.91463 48.0881C7.91463 38.1496 20.4812 33.3991 39.6937 36.0248Z" fill="white"/>
</svg>
